<svg width="1000" height="460" viewBox="0 0 1000 460" xmlns="http://www.w3.org/2000/svg">
  <defs>
    <linearGradient id="line" x1="0" y1="0" x2="1" y2="0">
      <stop offset="0%" stop-color="#5ee7ff"/>
      <stop offset="50%" stop-color="#8b5cf6"/>
      <stop offset="100%" stop-color="#ff4da6"/>
    </linearGradient>
  </defs>
  <rect width="1000" height="460" rx="28" fill="#0b0f19"/>
  <text x="48" y="62" fill="#ffffff" font-size="30" font-weight="800" font-family="Segoe UI, Arial, sans-serif">GAME COMPLETION LOG</text>
  <rect x="48" y="78" width="904" height="3" rx="2" fill="url(#line)" opacity=".8"/>

  <g font-family="Segoe UI, Arial, sans-serif">
    <g transform="translate(48,112)">
      <rect width="430" height="72" rx="18" fill="#111827" stroke="#243244"/>
      <circle cx="36" cy="36" r="18" fill="#1f2937"/>
      <text x="30" y="42" fill="#ffe66d" font-size="18">★</text>
      <text x="68" y="31" fill="#fff" font-size="18" font-weight="700">Cuphead</text>
      <text x="68" y="53" fill="#94a3b8" font-size="14">Completed 10 times</text>
      <text x="357" y="44" fill="#5ee7ff" font-size="20" font-weight="800">×10</text>
    </g>

    <g transform="translate(522,112)">
      <rect width="430" height="72" rx="18" fill="#111827" stroke="#243244"/>
      <text x="30" y="31" fill="#fff" font-size="18" font-weight="700">Cuphead — Expert Mode</text>
      <text x="30" y="53" fill="#94a3b8" font-size="14">Difficulty cleared</text>
      <text x="372" y="45" fill="#a78bfa" font-size="24" font-weight="800">✓</text>
    </g>

    <g transform="translate(48,204)">
      <rect width="430" height="72" rx="18" fill="#111827" stroke="#243244"/>
      <text x="30" y="31" fill="#fff" font-size="18" font-weight="700">GTA V</text>
      <text x="30" y="53" fill="#94a3b8" font-size="14">Story completed</text>
      <text x="372" y="45" fill="#34d399" font-size="24" font-weight="800">✓</text>
    </g>

    <g transform="translate(522,204)">
      <rect width="430" height="72" rx="18" fill="#111827" stroke="#243244"/>
      <text x="30" y="31" fill="#fff" font-size="18" font-weight="700">God of War III</text>
      <text x="30" y="53" fill="#94a3b8" font-size="14">Story completed</text>
      <text x="372" y="45" fill="#34d399" font-size="24" font-weight="800">✓</text>
    </g>

    <g transform="translate(48,296)">
      <rect width="430" height="72" rx="18" fill="#111827" stroke="#243244"/>
      <text x="30" y="31" fill="#fff" font-size="18" font-weight="700">Spider-Man: Miles Morales</text>
      <text x="30" y="53" fill="#94a3b8" font-size="14">Story completed</text>
      <text x="372" y="45" fill="#34d399" font-size="24" font-weight="800">✓</text>
    </g>

    <g transform="translate(522,296)">
      <rect width="430" height="72" rx="18" fill="#111827" stroke="#243244"/>
      <text x="30" y="31" fill="#fff" font-size="18" font-weight="700">The Amazing Spider-Man</text>
      <text x="30" y="53" fill="#94a3b8" font-size="14">Story completed</text>
      <text x="372" y="45" fill="#34d399" font-size="24" font-weight="800">✓</text>
    </g>

    <text x="48" y="416" fill="#94a3b8" font-size="15">Also completed: LEGO Marvel Super Heroes • Hitman</text>
  </g>
</svg>